# xmcd CD database file
#
# Track frame offsets:
#	150
#	11298
#	36294
#	54846
#	84467
#	98611
#	120205
#	140697
#	179938
#	205706
#
# Disc length: 3226 seconds
#
# Revision: 0
# Processed by: cddbd v1.5.1PL0 Copyright (c) Steve Scherf et al.
# Submitted via: CDex 1.50Beta7
#
DISCID=790c980a
DTITLE=Cassandra Wilson - Song Book
DYEAR=1900
DGENRE=Jazz
TTITLE0=Let's Face the Music
TTITLE1=Sweet Lorraine
TTITLE2=Blue in Green
TTITLE3=Naubles, Bangles and Beads
TTITLE4=I'm Old-Fashioned
TTITLE5=Whirlwind Soldier
TTITLE6=Little One I'll Miss You
TTITLE7=Body and Soul
TTITLE8=No Good Time Fairies
TTITLE9=Autumn Nocturne
EXTD=
EXTT0=
EXTT1=
EXTT2=
EXTT3=
EXTT4=
EXTT5=
EXTT6=
EXTT7=
EXTT8=
EXTT9=
PLAYORDER=
